<svg width="271" height="328" viewBox="0 0 271 328" fill="none" xmlns="http://www.w3.org/2000/svg">
<path d="M48.352 131.596C51.9227 131.665 54.9213 133.052 57.348 135.756C59.8093 138.425 61.04 141.563 61.04 145.168V145.48C60.9707 149.259 59.6707 152.465 57.14 155.1C54.6093 157.7 51.5933 159 48.092 159H47.832C44.2613 158.931 41.2453 157.561 38.784 154.892C36.3573 152.188 35.144 149.033 35.144 145.428V145.116C35.2133 141.337 36.5307 138.148 39.096 135.548C41.6613 132.913 44.66 131.596 48.092 131.596H48.352ZM53.968 145.428V144.908C53.968 141.892 53.4133 139.24 52.304 136.952C51.2293 134.664 49.8947 133.52 48.3 133.52C46.7053 133.52 45.3187 134.664 44.14 136.952C42.9613 139.205 42.3373 141.979 42.268 145.272V145.792C42.268 148.773 42.8053 151.425 43.88 153.748C44.9547 156.036 46.2893 157.18 47.884 157.18C49.5133 157.18 50.9173 156.036 52.096 153.748C53.2747 151.46 53.8987 148.687 53.968 145.428ZM89.6904 130.816L88.8584 131.076C88.3384 131.249 87.5584 131.544 86.5184 131.96C85.513 132.376 84.525 132.827 83.5544 133.312C83.5544 133.243 83.537 133.208 83.5024 133.208V132.896C83.4677 132.896 83.4504 132.861 83.4504 132.792V132.688C83.4504 132.549 83.433 132.463 83.3984 132.428L83.3464 131.96C83.3464 131.821 83.329 131.735 83.2944 131.7H83.2424C82.7917 129.551 82.081 127.835 81.1104 126.552C80.1744 125.235 79.0997 124.576 77.8864 124.576C76.9504 124.576 76.1357 124.871 75.4424 125.46C74.749 126.049 74.2117 126.829 73.8304 127.8C73.449 128.771 73.1544 129.672 72.9464 130.504C72.773 131.301 72.6517 132.116 72.5824 132.948C72.305 135.271 72.1664 138.321 72.1664 142.1C74.1077 141.06 76.673 140.54 79.8624 140.54C79.793 140.679 79.7237 140.904 79.6544 141.216C79.6197 141.528 79.585 141.771 79.5504 141.944C78.2677 142.013 77.089 142.204 76.0144 142.516C73.4144 143.556 72.1144 145.74 72.1144 149.068V153.332C72.1144 155.967 72.5824 157.856 73.5184 159H63.5344C64.193 158.168 64.6264 156.851 64.8344 155.048C64.9384 154.285 64.9904 153.453 64.9904 152.552C64.9557 151.339 64.9384 149.553 64.9384 147.196C64.9384 142.863 64.9557 139.881 64.9904 138.252C65.0944 135.063 65.649 132.272 66.6544 129.88C67.6944 127.488 69.5144 125.599 72.1144 124.212C73.8477 123.241 75.7717 122.756 77.8864 122.756C80.4517 122.756 82.7917 123.501 84.9064 124.992C87.021 126.448 88.6157 128.389 89.6904 130.816Z" fill="#CC6957"/>
<path d="M125.501 245.535C125.713 245.216 125.625 244.785 125.309 244.575C124.987 244.363 124.559 244.45 124.345 244.767C124.134 245.087 124.221 245.517 124.539 245.729C124.857 245.941 125.288 245.855 125.501 245.535ZM117.556 277.907C118.24 278.334 118.448 279.235 118.021 279.919C118.448 279.235 119.35 279.027 120.034 279.454C119.35 279.027 119.14 278.126 119.568 277.442C119.141 278.126 118.24 278.334 117.556 277.907ZM127.888 253.366L120.311 268.179L130.517 254.577L133.545 264.779L132.371 254.814L146.614 262.098L133.517 252.273L143.79 249.226L133.018 250.496L140.532 235.799L131.044 248.445L128.236 238.981L129.5 249.686L114.236 241.878L127.388 251.747L117.991 254.535L127.888 253.366ZM129.224 251.909L121.429 246.375L130.065 251.082L129.585 247.012L130.654 250.615L134.946 244.744L131.43 251.418L135.537 250.933L131.642 252.089L139.414 257.606L131.17 253.113L131.616 256.885L130.462 252.994L125.897 259.234L129.437 252.518L125.663 252.966L129.224 251.909ZM117.174 262.105C116.802 262.701 116.015 262.883 115.419 262.511C116.015 262.883 116.198 263.668 115.825 264.265C116.197 263.669 116.984 263.488 117.58 263.86C116.984 263.488 116.802 262.701 117.174 262.105ZM115.821 252.335C115.239 251.971 114.475 252.149 114.11 252.733C113.746 253.316 113.922 254.081 114.504 254.444C115.087 254.808 115.854 254.633 116.218 254.05C116.583 253.466 116.404 252.699 115.821 252.335ZM149.449 253.588C150.836 254.454 151.26 256.283 150.392 257.672C151.26 256.283 153.087 255.86 154.476 256.728C153.087 255.86 152.665 254.033 153.532 252.644C152.664 254.032 150.836 254.454 149.449 253.588ZM144.191 243.944C143.929 244.363 144.057 244.913 144.474 245.174C144.894 245.436 145.445 245.308 145.706 244.89C145.968 244.469 145.84 243.919 145.421 243.657C145.004 243.396 144.454 243.523 144.191 243.944ZM136.849 263.203C136.277 264.118 136.555 265.325 137.471 265.897C138.387 266.469 139.593 266.189 140.165 265.274C140.737 264.358 140.458 263.152 139.542 262.58C138.627 262.008 137.421 262.286 136.849 263.203ZM124.995 229.712C122.845 228.369 122.192 225.536 123.534 223.386C122.192 225.536 119.359 226.192 117.207 224.848C119.359 226.192 120.013 229.024 118.67 231.175C120.013 229.023 122.844 228.369 124.995 229.712ZM122.729 238.78C121.879 238.249 121.622 237.132 122.152 236.282C121.622 237.132 120.503 237.39 119.654 236.859C120.503 237.39 120.762 238.509 120.231 239.359C120.762 238.509 121.879 238.249 122.729 238.78ZM133.912 240.307C134.266 239.774 134.121 239.056 133.589 238.702C133.056 238.347 132.336 238.493 131.982 239.026C131.627 239.558 131.774 240.275 132.305 240.631C132.836 240.985 133.557 240.84 133.912 240.307ZM125.367 270.871C126.963 271.868 127.448 273.969 126.451 275.565C127.448 273.969 129.55 273.484 131.145 274.48C129.55 273.484 129.063 271.382 130.06 269.785C129.063 271.382 126.963 271.868 125.367 270.871ZM100.236 269.936C99.5506 269.509 99.3413 268.608 99.7687 267.923C99.3413 268.608 98.4419 268.816 97.7568 268.388C98.4419 268.816 98.6484 269.717 98.2218 270.4C98.648 269.718 99.5507 269.509 100.236 269.936ZM96.9316 297.091L96.6336 294.575L100.228 296.414L96.9237 293.934L99.5155 293.164L96.7972 293.485L98.6938 289.776L96.2989 292.968L95.5901 290.578L95.9099 293.281L92.0593 291.312L95.3773 293.802L93.0058 294.506L95.5045 294.21L93.5927 297.948L96.1684 294.516L96.9316 297.091ZM95.0015 295.69L95.8951 293.996L94.9422 294.107L95.841 293.842L93.8736 292.444L96.0539 293.632L95.9327 292.605L96.2021 293.515L97.2849 292.034L96.398 293.717L97.4347 293.596L96.4503 293.887L98.4118 295.279L96.3322 294.145L96.4446 295.096L96.1532 294.114L95.0015 295.69ZM106.532 311.163C107.249 310.015 108.762 309.666 109.91 310.383C108.762 309.666 108.412 308.153 109.13 307.004C108.412 308.153 106.9 308.503 105.752 307.786C106.9 308.502 107.25 310.015 106.532 311.163ZM88.0675 298.825C88.6507 297.892 88.3679 296.661 87.4353 296.078C86.4994 295.494 85.2673 295.779 84.6841 296.713C84.1 297.648 84.3861 298.878 85.322 299.462C86.2546 300.045 87.4843 299.759 88.0675 298.825ZM95.3474 303.116C95.8597 303.458 96.5528 303.318 96.8939 302.805C97.2351 302.293 97.0949 301.601 96.5836 301.259C96.0711 300.918 95.3789 301.057 95.0365 301.569C94.6946 302.084 94.8333 302.776 95.3474 303.116ZM82.1342 307.71C81.2776 307.175 81.0184 306.049 81.5512 305.195C81.018 306.049 79.8898 306.308 79.0359 305.775C79.8912 306.309 80.1509 307.438 79.6176 308.292C80.1502 307.437 81.2776 307.175 82.1342 307.71ZM90.9843 312.198C92.2867 313.011 92.6817 314.725 91.8692 316.026C92.6826 314.723 94.3965 314.328 95.6975 315.141C94.3951 314.328 94.0001 312.614 94.8126 311.313C94.0008 312.614 92.286 313.01 90.9843 312.198ZM90.0558 306.658C90.0363 306.646 90.0231 306.631 90.0058 306.618C90.0038 306.635 90.0004 306.652 89.9993 306.667C89.996 306.688 89.9961 306.706 89.993 306.722C90.0171 306.709 90.0478 306.686 90.0763 306.667C90.0712 306.665 90.0625 306.662 90.0558 306.658ZM115.994 291.056C116.41 290.389 116.208 289.51 115.539 289.092C114.871 288.675 113.99 288.878 113.573 289.545C113.155 290.214 113.359 291.096 114.027 291.513C114.697 291.932 115.574 291.727 115.994 291.056ZM102.626 281.593C102.07 281.246 101.901 280.513 102.247 279.958C101.901 280.513 101.169 280.684 100.612 280.335C101.169 280.684 101.337 281.416 100.99 281.971C101.337 281.416 102.07 281.246 102.626 281.593ZM111.237 272.609C111.894 271.557 111.574 270.175 110.524 269.519C109.472 268.862 108.091 269.182 107.434 270.234C106.778 271.285 107.096 272.666 108.148 273.323C109.198 273.979 110.581 273.659 111.237 272.609ZM97.4098 259.69C97.651 259.325 97.5516 258.83 97.1863 258.589C96.8198 258.345 96.3272 258.444 96.0837 258.811C95.8372 259.176 95.9403 259.67 96.3039 259.913C96.6721 260.155 97.166 260.057 97.4098 259.69ZM98.1925 249.303L99.6575 254.244L99.0894 249.417L105.989 252.947L99.6436 248.186L104.622 246.71L99.4015 247.325L103.043 240.202L98.4467 246.331L97.0845 241.745L97.6975 246.932L90.3014 243.15L96.6725 247.931L92.1197 249.284L96.9172 248.716L93.2434 255.895L98.1925 249.303ZM95.8381 248.521L97.564 248.008L93.7872 245.328L97.974 247.609L97.7402 245.636L98.2589 247.383L100.337 244.538L98.634 247.771L100.625 247.537L98.737 248.097L102.503 250.771L98.5092 248.592L98.726 250.421L98.1659 248.536L95.9532 251.56L97.6696 248.306L95.8381 248.521ZM103.067 293.981C103.434 294.223 103.925 294.124 104.171 293.757C104.414 293.392 104.314 292.898 103.948 292.655C103.583 292.412 103.089 292.51 102.845 292.878C102.601 293.244 102.701 293.737 103.067 293.981ZM80.1964 285.291C79.2625 284.708 78.9773 283.477 79.5605 282.543C78.9773 283.477 77.7476 283.762 76.813 283.178C77.747 283.762 78.0317 284.991 77.4476 285.926C78.0317 284.991 79.2632 284.709 80.1964 285.291Z" fill="#2F5B48"/>
<path d="M124.95 149.587C124.69 149.314 124.258 149.304 123.987 149.562C123.714 149.824 123.704 150.253 123.962 150.528C124.222 150.801 124.653 150.811 124.927 150.552C125.199 150.293 125.211 149.861 124.95 149.587ZM154.262 164.268C154.821 163.705 155.731 163.703 156.293 164.261C155.731 163.703 155.728 162.792 156.287 162.229C155.728 162.792 154.818 162.796 154.255 162.237C154.819 162.796 154.821 163.705 154.262 164.268ZM132.981 149.006L145.534 159.504L134.716 146.749L145.16 146.07L135.348 145.022L145.44 132.953L133.16 143.369L132.479 132.853L131.348 143.46L118.891 133.048L128.95 144.906L119.261 145.534L129.804 146.657L118.986 159.593L131.32 149.133L131.943 158.753L132.981 149.006ZM131.875 147.407L124.868 153.676L131.266 146.42L127.257 145.993L130.946 145.753L126.252 140.357L131.886 145.184L132.316 141.14L132.575 145.127L139.562 138.878L133.454 145.803L137.169 146.199L133.186 146.457L138.175 152.196L132.506 147.336L132.112 151.053L131.875 147.407ZM139.025 161.187C139.515 161.674 139.518 162.468 139.032 162.959C139.518 162.468 140.311 162.465 140.802 162.952C140.312 162.465 140.31 161.671 140.797 161.181C140.31 161.671 139.515 161.674 139.025 161.187ZM129.36 160.354C128.884 160.833 128.888 161.604 129.369 162.082C129.848 162.558 130.62 162.555 131.095 162.077C131.572 161.597 131.571 160.823 131.091 160.347C130.611 159.87 129.836 159.874 129.36 160.354ZM137.897 128.377C139.03 127.236 140.877 127.229 142.02 128.363C140.877 127.228 140.87 125.383 142.004 124.24C140.87 125.383 139.025 125.39 137.882 124.255C139.024 125.39 139.03 127.236 137.897 128.377ZM127.501 131.316C127.846 131.659 128.402 131.656 128.742 131.313C129.085 130.967 129.082 130.411 128.738 130.07C128.393 129.726 127.837 129.729 127.495 130.074C127.153 130.416 127.154 130.972 127.501 131.316ZM144.369 142.558C145.123 143.306 146.34 143.303 147.089 142.549C147.837 141.796 147.832 140.578 147.079 139.83C146.325 139.081 145.108 139.086 144.36 139.839C143.611 140.593 143.615 141.809 144.369 142.558ZM109.665 146.621C107.909 148.389 105.048 148.398 103.279 146.642C105.048 148.398 105.06 151.259 103.302 153.029C105.06 151.259 107.919 151.249 109.688 153.006C107.918 151.248 107.907 148.391 109.665 146.621ZM117.867 150.772C117.173 151.471 116.045 151.474 115.346 150.78C116.045 151.474 116.048 152.604 115.355 153.302C116.048 152.604 117.178 152.6 117.877 153.293C117.178 152.6 117.173 151.471 117.867 150.772ZM121.771 140.381C121.337 139.924 120.617 139.907 120.161 140.34C119.705 140.774 119.688 141.496 120.122 141.952C120.554 142.408 121.274 142.424 121.731 141.992C122.187 141.56 122.205 140.837 121.771 140.381ZM149.219 155.242C150.523 153.929 152.644 153.923 153.957 155.227C152.644 153.923 152.637 151.801 153.94 150.488C152.637 151.801 150.515 151.809 149.201 150.504C150.515 151.809 150.523 153.929 149.219 155.242ZM142.841 179.14C142.281 179.704 141.371 179.708 140.808 179.149C141.371 179.708 141.375 180.616 140.815 181.18C141.375 180.616 142.284 180.614 142.846 181.172C142.285 180.615 142.281 179.704 142.841 179.14ZM168.162 188.232L165.684 187.969L168.231 184.923L165.132 187.551L164.959 184.897L164.675 187.574L161.531 184.946L164.069 187.939L161.623 188.098L164.285 188.381L161.556 191.644L164.668 189.005L164.826 191.433L165.087 188.972L168.255 191.621L165.526 188.402L168.162 188.232ZM166.397 189.777L164.967 188.551L164.866 189.489L164.807 188.569L163.038 190.151L164.653 188.319L163.642 188.211L164.573 188.151L163.389 186.79L164.81 188.008L164.919 186.987L164.984 187.994L166.747 186.417L165.205 188.164L166.142 188.264L165.137 188.329L166.397 189.777ZM183.752 182.094C182.807 181.156 182.802 179.629 183.74 178.685C182.802 179.629 181.275 179.635 180.329 178.696C181.275 179.635 181.28 181.162 180.342 182.106C181.28 181.161 182.807 181.156 183.752 182.094ZM167.892 197.111C167.123 196.348 165.881 196.351 165.119 197.118C164.354 197.888 164.359 199.132 165.127 199.895C165.897 200.659 167.139 200.653 167.904 199.883C168.665 199.116 168.66 197.874 167.892 197.111ZM173.594 191.065C174.034 190.649 174.051 189.953 173.633 189.514C173.216 189.075 172.523 189.059 172.083 189.475C171.644 189.892 171.626 190.586 172.043 191.026C172.462 191.466 173.156 191.484 173.594 191.065ZM175.118 204.739C174.418 205.444 173.281 205.447 172.579 204.75C173.282 205.448 173.284 206.586 172.586 207.289C173.285 206.585 174.424 206.582 175.127 207.28C174.424 206.583 174.418 205.444 175.118 204.739ZM181.352 197.231C182.416 196.159 184.146 196.154 185.216 197.217C184.145 196.153 184.14 194.423 185.203 193.353C184.139 194.424 182.409 194.429 181.338 193.366C182.409 194.429 182.415 196.16 181.352 197.231ZM175.837 196.913C175.821 196.929 175.804 196.938 175.788 196.952C175.803 196.958 175.819 196.965 175.834 196.969C175.852 196.977 175.87 196.981 175.885 196.987C175.878 196.961 175.862 196.927 175.85 196.895C175.847 196.9 175.842 196.907 175.837 196.913ZM166.532 168.635C165.983 168.09 165.096 168.092 164.549 168.642C164.004 169.192 164.006 170.081 164.555 170.626C165.106 171.173 165.995 171.17 166.541 170.62C167.089 170.069 167.084 169.183 166.532 168.635ZM154.541 179.39C154.087 179.848 153.347 179.85 152.89 179.397C153.347 179.85 153.351 180.589 152.895 181.048C153.351 180.589 154.09 180.588 154.547 181.041C154.09 180.588 154.087 179.848 154.541 179.39ZM147.803 169.173C146.938 168.313 145.542 168.318 144.684 169.182C143.825 170.048 143.831 171.442 144.696 172.302C145.561 173.16 146.955 173.156 147.814 172.291C148.672 171.427 148.667 170.031 147.803 169.173ZM132.398 179.615C132.1 179.304 131.604 179.291 131.293 179.589C130.979 179.887 130.966 180.381 131.266 180.695C131.562 181.011 132.057 181.02 132.371 180.724C132.682 180.424 132.696 179.929 132.398 179.615ZM122.607 176.599L127.665 176.271L122.912 175.763L127.802 169.916L121.852 174.963L121.522 169.867L120.974 175.008L114.937 169.962L119.812 175.706L115.117 176.012L120.225 176.556L114.985 182.824L120.96 177.757L121.264 182.418L121.766 177.694L127.849 182.783L122.607 176.599ZM121.343 178.686L121.228 176.919L117.833 179.956L120.934 176.439L118.992 176.233L120.78 176.116L118.505 173.502L121.234 175.841L121.444 173.88L121.569 175.813L124.955 172.785L121.994 176.14L123.796 176.331L121.865 176.457L124.283 179.238L121.536 176.882L121.343 178.686ZM166.517 181.67C166.829 181.37 166.841 180.878 166.543 180.562C166.247 180.25 165.751 180.238 165.438 180.536C165.126 180.833 165.112 181.328 165.411 181.642C165.709 181.956 166.204 181.967 166.517 181.67ZM153.195 201.707C152.432 202.476 151.189 202.481 150.42 201.718C151.189 202.481 151.194 203.722 150.431 204.491C151.194 203.723 152.435 203.718 153.204 204.482C152.435 203.718 152.433 202.475 153.195 201.707Z" fill="#CC6957"/>
<path d="M44.3934 44.0049C44.0726 43.6655 43.515 43.6756 43.1503 44.0237C42.784 44.3776 42.7473 44.933 43.0659 45.2746C43.3876 45.6131 43.9451 45.603 44.312 45.2542C44.6782 44.9046 44.7164 44.3448 44.3934 44.0049ZM81.5019 61.4253C82.255 60.6668 83.4311 60.6155 84.1279 61.3073C83.4311 60.6154 83.4757 59.4375 84.2288 58.6791C83.4757 59.4376 82.2995 59.4918 81.6014 58.7986C82.3003 59.4911 82.255 60.6669 81.5019 61.4253ZM54.8067 42.8231L70.4736 55.73L57.1708 39.8099L70.7097 38.3731L58.0799 37.5433L71.7727 21.3904L55.3406 35.5217L55.0232 21.955L52.9927 35.7369L37.447 22.9355L49.8153 37.7353L37.2564 39.0668L50.8255 39.9547L36.148 57.2665L52.6526 43.0758L52.944 55.4864L54.8067 42.8231ZM53.4625 40.8136L44.0686 49.2973L52.7284 39.5695L47.5693 39.2319L52.3506 38.7239L46.5712 31.9952L53.5957 37.9376L54.3689 32.6834L54.49 37.8271L63.8567 29.3694L55.59 38.6547L60.372 38.9672L55.2088 39.5144L61.3505 46.671L54.282 40.6878L53.5741 45.5171L53.4625 40.8136ZM61.9685 58.2561C62.5761 58.8594 62.5379 59.8869 61.8824 60.547C62.5379 59.8869 63.5629 59.8394 64.1719 60.4441C63.5636 59.8401 63.6039 58.8133 64.2594 58.1532C63.6039 58.8133 62.5761 58.8594 61.9685 58.2561ZM49.5185 57.695C48.8778 58.3402 48.8414 59.3383 49.4374 59.9301C50.0313 60.5198 51.0299 60.4757 51.6698 59.8312C52.3112 59.1853 52.352 58.1841 51.7574 57.5937C51.1614 57.0019 50.1599 57.0491 49.5185 57.695ZM62.2663 15.8761C63.7933 14.3384 66.1804 14.2305 67.5971 15.6374C66.1803 14.2304 66.27 11.8441 67.7984 10.305C66.2699 11.8442 63.885 11.9513 62.4682 10.5444C63.8843 11.9521 63.7932 14.3385 62.2663 15.8761ZM48.6695 20.2338C49.0974 20.6587 49.816 20.625 50.2746 20.1631C50.737 19.6974 50.7628 18.9788 50.3362 18.5552C49.9076 18.1296 49.189 18.1633 48.7282 18.6275C48.2688 19.0887 48.2402 19.8075 48.6695 20.2338ZM69.8747 33.8728C70.8088 34.8003 72.3833 34.7303 73.3909 33.7155C74.3985 32.7008 74.4575 31.1258 73.5234 30.1983C72.5894 29.2708 71.0155 29.3415 70.0079 30.3563C69.0003 31.371 68.94 32.9446 69.8747 33.8728ZM24.7926 40.9858C22.4275 43.3676 18.7295 43.5323 16.5363 41.3545C18.7295 43.5323 18.5908 47.2313 16.2235 49.6154C18.5908 47.2313 22.2874 47.0653 24.4813 49.2437C22.286 47.0653 22.426 43.3691 24.7926 40.9858ZM35.1734 45.9169C34.239 46.8579 32.7807 46.922 31.9146 46.0619C32.7807 46.922 32.7247 48.3829 31.7903 49.3239C32.7247 48.3829 34.1859 48.3173 35.0521 49.1774C34.1859 48.3173 34.239 46.8579 35.1734 45.9169ZM40.7774 32.2657C40.241 31.699 39.3104 31.7144 38.6976 32.3C38.0847 32.8856 38.0245 33.82 38.5609 34.3867C39.0959 34.9535 40.0252 34.9352 40.6393 34.3524C41.2513 33.769 41.3131 32.8331 40.7774 32.2657ZM75.4655 50.0202C77.2218 48.2515 79.9631 48.1298 81.5912 49.7465C79.9631 48.1298 80.0678 45.3854 81.8233 43.6175C80.0678 45.3854 77.3242 45.5094 75.6961 43.8928C77.3249 45.5101 77.2218 48.2516 75.4655 50.0202ZM65.9401 81.2738C65.1863 82.033 64.0101 82.0872 63.312 81.394C64.0101 82.0872 63.9664 83.2615 63.2125 84.0207C63.9664 83.2615 65.1417 83.2108 65.8384 83.9027C65.1424 83.2115 65.1863 82.0329 65.9401 81.2738ZM98.1876 91.679L94.9983 91.4714L98.4551 87.3949L94.3075 90.9601L94.2265 87.5371L93.7149 91.0151L89.7919 87.784L92.9131 91.5195L89.7423 91.8556L93.168 92.0789L89.4661 96.4462L93.6299 92.866L93.7042 95.9981L94.1739 92.801L98.1272 96.0578L94.7713 92.0403L98.1876 91.679ZM95.8241 93.7726L94.0411 92.2626L93.8604 93.4814L93.8335 92.2947L91.4611 94.4355L93.6477 91.9798L92.3458 91.8945L93.5525 91.767L92.0948 90.0694L93.8668 91.5685L94.0629 90.2422L94.0919 91.5421L96.4555 89.4073L94.3695 91.7495L95.5755 91.8284L94.2723 91.9667L95.8241 93.7726ZM118.67 82.9049C117.5 81.7425 117.575 79.7675 118.837 78.4957C117.575 79.7675 115.6 79.8562 114.428 78.6924C115.6 79.8562 115.525 81.8312 114.263 83.1029C115.525 81.8305 117.499 81.7418 118.67 82.9049ZM97.3632 103.179C96.4107 102.233 94.8048 102.303 93.7787 103.336C92.7489 104.374 92.688 105.982 93.6405 106.928C94.5945 107.875 96.2005 107.801 97.2303 106.764C98.2564 105.73 98.3158 104.125 97.3632 103.179ZM105.059 95.0534C105.65 94.4908 105.709 93.5906 105.192 93.0451C104.677 92.4995 103.781 92.5156 103.19 93.0767C102.601 93.6399 102.541 94.5387 103.056 95.0857C103.574 95.6326 104.47 95.6186 105.059 95.0534ZM106.297 112.659C105.354 113.608 103.885 113.673 103.014 112.809C103.885 113.674 103.827 115.146 102.888 116.092C103.829 115.145 105.301 115.08 106.172 115.945C105.301 115.081 105.354 113.608 106.297 112.659ZM114.758 102.613C116.191 101.17 118.428 101.071 119.755 102.389C118.426 101.07 118.512 98.8321 119.944 97.3905C118.511 98.8337 116.274 98.9327 114.947 97.615C116.275 98.932 116.19 101.171 114.758 102.613ZM107.645 102.497C107.624 102.519 107.601 102.532 107.58 102.551C107.599 102.557 107.62 102.565 107.638 102.57C107.662 102.579 107.684 102.583 107.704 102.591C107.696 102.557 107.677 102.513 107.663 102.474C107.659 102.479 107.653 102.49 107.645 102.497ZM97.1304 66.4168C96.4501 65.7412 95.3026 65.7914 94.5665 66.5327C93.8318 67.2725 93.7868 68.4233 94.4671 69.0989C95.1502 69.7771 96.3006 69.7255 97.036 68.9849C97.7736 68.2421 97.8148 67.0964 97.1304 66.4168ZM81.0532 80.9713C80.4413 81.5874 79.4848 81.6304 78.9183 81.0679C79.4848 81.6304 79.45 82.5858 78.8367 83.2034C79.45 82.5858 80.4051 82.5443 80.9716 83.1068C80.4051 82.5443 80.4413 81.5874 81.0532 80.9713ZM72.8894 68.1152C71.8168 67.0501 70.0119 67.1311 68.8563 68.2949C67.6993 69.4601 67.6324 71.264 68.705 72.3291C69.7769 73.3935 71.5796 73.3132 72.7367 72.148C73.8922 70.9842 73.9606 69.1789 72.8894 68.1152ZM52.4144 82.4474C52.0462 82.0611 51.4054 82.0714 50.9874 82.4731C50.5658 82.8757 50.5231 83.5154 50.8933 83.9052C51.2591 84.298 51.8994 84.2828 52.3201 83.8838C52.739 83.4785 52.7832 82.8373 52.4144 82.4474ZM39.9188 79.0698L46.4753 78.3758L40.3581 77.9732L46.9926 70.1478L39.0305 76.9949L38.8767 70.4207L37.8929 77.0994L30.3588 70.8952L36.3534 78.0655L30.267 78.7126L36.8422 79.1425L29.7318 87.5308L37.7277 80.6566L37.8706 86.6698L38.7726 80.5313L46.3645 86.7886L39.9188 79.0698ZM38.173 81.8374L38.1184 79.5579L33.568 83.6686L37.765 78.9523L35.2649 78.7899L37.5826 78.5434L34.7815 75.2841L38.1849 78.1634L38.561 75.6161L38.6195 78.1097L43.1582 74.0108L39.1516 78.5093L41.47 78.66L38.9679 78.9261L41.944 82.3948L38.5194 79.4943L38.173 81.8374ZM96.4132 83.2789C96.8328 82.8742 96.8747 82.2367 96.506 81.844C96.1393 81.4562 95.4992 81.4672 95.079 81.8697C94.6589 82.2708 94.6147 82.912 94.9849 83.3018C95.353 83.6924 95.9917 83.68 96.4132 83.2789ZM78.118 109.911C77.0904 110.946 75.483 111.019 74.5305 110.073C75.483 111.019 75.4236 112.625 74.3953 113.66C75.4229 112.625 77.0274 112.553 77.9814 113.5C77.0274 112.553 77.0911 110.945 78.118 109.911Z" fill="#CC6957"/>
<path d="M104.088 252.216V277.228C104.088 279.793 104.556 281.7 105.492 282.948H95.56C96.496 281.804 96.964 279.897 96.964 277.228V252.216C96.964 249.581 96.496 247.692 95.56 246.548H105.492C104.556 247.692 104.088 249.581 104.088 252.216ZM131.802 263.604V277.8C132.079 280.435 132.547 282.168 133.206 283H123.326C124.262 281.717 124.73 279.793 124.73 277.228V263.136C124.695 262.165 124.504 261.264 124.158 260.432C123.499 258.941 122.632 258.196 121.558 258.196C121.28 258.196 121.055 258.213 120.882 258.248C119.218 258.56 117.935 260.241 117.034 263.292V277.332C117.034 279.967 117.502 281.856 118.438 283H108.506C109.442 281.856 109.91 279.967 109.91 277.332V261.264C109.91 258.629 109.442 256.74 108.506 255.596H118.438C117.779 256.393 117.328 257.988 117.086 260.38C118.576 257.399 121.02 255.804 124.418 255.596C126.844 255.596 128.682 256.307 129.93 257.728C131.178 259.149 131.802 261.108 131.802 263.604ZM161.563 252.996V276.812C161.563 279.689 162.049 281.752 163.019 283H153.035C153.313 282.653 153.555 282.203 153.763 281.648C153.971 281.059 154.11 280.487 154.179 279.932C154.283 279.343 154.353 278.805 154.387 278.32C154.422 277.8 154.457 277.384 154.491 277.072V276.604V269.22C154.491 265.996 153.902 263.223 152.723 260.9C151.579 258.543 150.21 257.364 148.615 257.364C148.303 257.364 147.991 257.416 147.679 257.52C147.263 257.901 146.986 258.231 146.847 258.508C146.605 258.959 146.483 259.496 146.483 260.12C146.483 260.779 146.622 261.437 146.899 262.096C146.934 262.131 146.951 262.165 146.951 262.2V262.304C146.986 262.339 147.003 262.373 147.003 262.408L147.211 262.98C147.246 263.015 147.263 263.049 147.263 263.084V263.188C147.298 263.223 147.315 263.257 147.315 263.292C148.737 266.308 149.881 269.012 150.747 271.404C151.822 274.385 152.359 276.743 152.359 278.476C152.359 279.169 152.29 279.741 152.151 280.192C151.597 282.099 150.245 283.052 148.095 283.052C147.471 283.052 146.847 282.965 146.223 282.792C145.877 282.723 145.617 282.653 145.443 282.584C142.601 281.787 140.261 280.175 138.423 277.748C136.586 275.287 135.667 272.461 135.667 269.272C135.667 265.493 136.933 262.269 139.463 259.6C141.994 256.931 145.045 255.596 148.615 255.596C150.73 255.596 152.689 256.081 154.491 257.052V253.152V252.684C154.457 252.372 154.422 251.973 154.387 251.488C154.353 250.968 154.283 250.431 154.179 249.876C154.11 249.287 153.971 248.715 153.763 248.16C153.555 247.571 153.313 247.103 153.035 246.756H163.019C162.049 247.935 161.563 250.015 161.563 252.996ZM148.303 267.504C148.199 267.192 147.558 265.441 146.379 262.252C146.067 261.455 145.911 260.727 145.911 260.068C145.911 259.34 146.05 258.751 146.327 258.3C145.287 259.236 144.438 260.692 143.779 262.668C143.121 264.609 142.791 266.793 142.791 269.22C142.791 273.519 143.675 276.847 145.443 279.204C146.379 280.452 147.61 281.076 149.135 281.076C150.175 280.868 150.695 279.811 150.695 277.904C150.695 277.557 150.661 276.968 150.591 276.136C150.314 274.021 149.551 271.144 148.303 267.504ZM173.536 253.776C172.773 254.504 171.837 254.868 170.728 254.868C169.619 254.868 168.665 254.504 167.868 253.776C167.071 253.048 166.672 252.181 166.672 251.176C166.672 250.171 167.071 249.304 167.868 248.576C168.665 247.848 169.619 247.484 170.728 247.484C171.837 247.484 172.773 247.848 173.536 248.576C174.333 249.304 174.732 250.171 174.732 251.176C174.732 252.181 174.333 253.048 173.536 253.776ZM174.264 261.264V277.332C174.264 279.967 174.732 281.856 175.668 283H165.736C166.672 281.856 167.14 279.967 167.14 277.332V261.264C167.14 258.629 166.672 256.74 165.736 255.596H175.668C174.732 256.74 174.264 258.629 174.264 261.264ZM204.221 268.544V276.812C204.221 279.724 204.689 281.769 205.625 282.948H197.097V281.492C196.82 281.7 195.953 282.047 194.497 282.532C194.428 282.532 193.457 282.688 191.585 283C191.308 283.035 190.874 283.052 190.285 283.052C189.176 283.052 187.893 282.931 186.437 282.688C184.149 282.237 182.26 281.284 180.769 279.828C179.244 278.407 178.481 276.864 178.481 275.2C178.481 274.888 178.498 274.645 178.533 274.472C178.949 271.144 181.982 268.752 187.633 267.296L190.025 266.672C191.412 266.325 192.504 265.909 193.301 265.424C194.133 264.939 194.74 264.159 195.121 263.084C195.225 262.703 195.277 262.373 195.277 262.096C195.277 261.541 195.156 260.952 194.913 260.328C194.67 259.704 194.41 259.253 194.133 258.976C193.232 257.971 192.278 257.468 191.273 257.468C189.852 257.468 188.69 257.988 187.789 259.028C186.888 260.068 186.281 261.819 185.969 264.28L178.481 267.14C178.793 263.708 180.162 260.935 182.589 258.82C185.016 256.705 187.806 255.613 190.961 255.544H191.273C194.774 255.544 197.756 256.827 200.217 259.392C202.678 261.923 204.013 264.973 204.221 268.544ZM196.369 275.72C196.889 272.045 196.941 268.804 196.525 265.996C196.49 265.199 196.386 264.505 196.213 263.916L196.057 263.136C196.022 263.171 196.005 263.275 196.005 263.448C195.832 264.592 195.346 265.545 194.549 266.308C193.752 267.036 192.729 267.747 191.481 268.44C190.233 269.133 189.349 269.705 188.829 270.156C187.928 270.884 187.217 271.803 186.697 272.912C186.212 273.987 185.969 274.975 185.969 275.876C185.969 276.985 186.264 277.956 186.853 278.788C187.754 280.071 189.037 280.712 190.701 280.712H191.117C194.064 280.504 195.814 278.84 196.369 275.72Z" fill="#CC6957"/>
<path d="M86.184 212.472H86.132C85.7853 214.517 84.7973 216.216 83.168 217.568C81.5387 218.885 79.736 219.787 77.76 220.272C75.8187 220.757 73.704 221 71.416 221C68.2613 221 65.332 220.341 62.628 219.024C61.4493 218.469 60.3747 217.811 59.404 217.048L62.68 207.636C64.6213 211.761 66.1987 214.621 67.412 216.216C68.66 217.811 69.9947 218.643 71.416 218.712H71.624C73.704 218.712 75.3333 217.915 76.512 216.32C77.2747 215.245 77.656 214.136 77.656 212.992C77.656 212.403 77.5173 211.779 77.24 211.12C76.7893 209.941 75.6107 208.797 73.704 207.688C73.5307 207.584 72.1093 206.873 69.44 205.556C66.7707 204.239 64.8293 203.129 63.616 202.228C61.4667 200.911 60.1147 199.125 59.56 196.872C59.4213 196.317 59.352 195.676 59.352 194.948C59.352 194.463 59.3693 194.099 59.404 193.856C59.7507 192.053 60.4787 190.511 61.588 189.228C62.732 187.945 64.0667 186.992 65.592 186.368C67.152 185.744 68.6253 185.293 70.012 185.016C71.4333 184.739 72.82 184.6 74.172 184.6C77.292 184.6 80.2387 185.259 83.012 186.576C84.1213 187.096 85.1787 187.755 86.184 188.552L82.908 197.912C81.0013 193.856 79.424 191.031 78.176 189.436C76.9627 187.807 75.628 186.957 74.172 186.888H73.86C72.4387 186.888 71.0867 187.321 69.804 188.188C68.5213 189.055 67.724 190.164 67.412 191.516C67.2733 192.14 67.204 192.625 67.204 192.972C67.204 193.908 67.4813 194.896 68.036 195.936C68.5907 196.976 69.44 197.843 70.584 198.536C71.5547 199.125 73.236 199.975 75.628 201.084C78.02 202.193 80.0307 203.303 81.66 204.412C83.2893 205.521 84.5893 206.821 85.56 208.312C86.0453 209.04 86.288 209.993 86.288 211.172C86.288 211.484 86.2533 211.917 86.184 212.472ZM101.957 193.596C105.528 193.665 108.527 195.052 110.953 197.756C113.415 200.425 114.645 203.563 114.645 207.168V207.48C114.576 211.259 113.276 214.465 110.745 217.1C108.215 219.7 105.199 221 101.697 221H101.437C97.8668 220.931 94.8508 219.561 92.3895 216.892C89.9628 214.188 88.7495 211.033 88.7495 207.428V207.116C88.8188 203.337 90.1361 200.148 92.7015 197.548C95.2668 194.913 98.2655 193.596 101.697 193.596H101.957ZM107.573 207.428V206.908C107.573 203.892 107.019 201.24 105.909 198.952C104.835 196.664 103.5 195.52 101.905 195.52C100.311 195.52 98.9241 196.664 97.7455 198.952C96.5668 201.205 95.9428 203.979 95.8735 207.272V207.792C95.8735 210.773 96.4108 213.425 97.4855 215.748C98.5601 218.036 99.8948 219.18 101.489 219.18C103.119 219.18 104.523 218.036 105.701 215.748C106.88 213.46 107.504 210.687 107.573 207.428ZM140.28 199.212V215.332C140.28 217.967 140.748 219.856 141.684 221H131.752C132.445 220.168 132.913 218.573 133.156 216.216C131.665 219.197 129.204 220.792 125.772 221C123.345 221 121.508 220.289 120.26 218.868C119.012 217.447 118.388 215.488 118.388 212.992V198.744C118.319 196.317 117.851 194.601 116.984 193.596H126.916C125.945 194.636 125.46 196.543 125.46 199.316V213.46C125.564 214.465 125.772 215.367 126.084 216.164C126.743 217.655 127.609 218.4 128.684 218.4C128.961 218.4 129.187 218.383 129.36 218.348C131.024 218.036 132.307 216.355 133.208 213.304V199.212C133.208 196.716 132.723 194.844 131.752 193.596H141.684C140.748 194.74 140.28 196.612 140.28 199.212ZM165.157 208.884V190.424C165.157 187.789 164.689 185.9 163.753 184.756H173.685C172.749 185.9 172.281 187.789 172.281 190.424V197.184L165.157 208.884ZM187.465 201.604V215.8C187.743 218.435 188.211 220.168 188.869 221H178.937C179.908 219.752 180.393 217.897 180.393 215.436V201.136C180.359 200.339 180.185 199.524 179.873 198.692C179.319 197.028 178.417 196.196 177.169 196.196C175.887 196.196 174.812 196.889 173.945 198.276L173.581 198.952C173.443 199.16 173.183 199.767 172.801 200.772C172.455 202.055 172.281 204.221 172.281 207.272V215.332C172.281 217.967 172.749 219.856 173.685 221H163.753C164.169 220.549 164.481 219.908 164.689 219.076C164.689 219.007 164.707 218.955 164.741 218.92V218.816L164.845 218.244C164.845 218.209 164.845 218.175 164.845 218.14C164.88 218.105 164.897 218.053 164.897 217.984C165.071 217.152 165.157 216.268 165.157 215.332V214.032L164.013 216.164C163.979 216.199 163.875 216.389 163.701 216.736H163.649C163.164 217.603 162.488 218.435 161.621 219.232C160.373 220.203 159.212 220.775 158.137 220.948C157.964 220.983 157.721 221 157.409 221C157.063 221 156.803 220.983 156.629 220.948C153.336 220.601 150.892 218.989 149.297 216.112C148.569 214.829 148.084 213.391 147.841 211.796C147.737 211.068 147.685 210.305 147.685 209.508V195.104H143.161V193.492C143.265 193.492 143.404 193.509 143.577 193.544C143.785 193.544 143.941 193.544 144.045 193.544C144.912 193.544 145.848 193.405 146.853 193.128C149.592 192.365 151.568 190.805 152.781 188.448H154.757V193.492H158.917V195.104H154.757V209.456C154.757 214.032 155.815 216.875 157.929 217.984C158.241 218.123 158.571 218.192 158.917 218.192C160.269 218.192 161.569 217.152 162.817 215.072L165.157 211.016L172.853 198.068C174.067 195.78 175.939 194.359 178.469 193.804H178.573C178.608 193.769 178.695 193.752 178.833 193.752C178.868 193.717 178.92 193.7 178.989 193.7C179.128 193.7 179.215 193.683 179.249 193.648H179.405C179.544 193.648 179.631 193.631 179.665 193.596H180.601C181.191 193.596 181.797 193.7 182.421 193.908C183.08 194.081 183.808 194.428 184.605 194.948C185.437 195.433 186.113 196.265 186.633 197.444C187.188 198.588 187.465 199.975 187.465 201.604ZM209.893 210.236H216.861C216.237 213.356 214.746 215.939 212.389 217.984C210.031 219.995 207.31 221 204.225 221C200.654 221 197.603 219.665 195.073 216.996C192.542 214.327 191.277 211.085 191.277 207.272C191.277 203.493 192.542 200.269 195.073 197.6C197.603 194.931 200.654 193.596 204.225 193.596C207.241 193.596 209.945 194.601 212.337 196.612C214.729 198.623 216.237 201.153 216.861 204.204H216.185C212.718 204.204 209.373 204.707 206.149 205.712C204.034 206.371 202.37 207.341 201.157 208.624C199.943 209.907 199.337 211.363 199.337 212.992C199.337 213.408 199.354 213.72 199.389 213.928C199.909 215.523 200.585 216.788 201.417 217.724C202.283 218.625 203.219 219.076 204.225 219.076C205.577 219.076 206.773 218.244 207.813 216.58C208.853 214.916 209.546 212.801 209.893 210.236ZM198.401 207.22V208.624C200.238 206.059 204.034 204.36 209.789 203.528C209.373 201.067 208.662 199.091 207.657 197.6C206.686 196.109 205.542 195.364 204.225 195.364C202.63 195.364 201.261 196.525 200.117 198.848C198.973 201.171 198.401 203.961 198.401 207.22ZM227.893 199.108C229.453 196.3 232.434 194.896 236.837 194.896C239.09 194.896 241.274 195.295 243.389 196.092L239.541 201.448C236.525 199.992 233.942 199.264 231.793 199.264C230.337 199.264 229.314 199.645 228.725 200.408C228.17 201.171 227.893 202.297 227.893 203.788V215.332C227.893 217.967 228.361 219.856 229.297 221H219.365C220.301 219.856 220.769 217.967 220.769 215.332V199.264C220.769 196.629 220.301 194.74 219.365 193.596H229.297C228.361 194.74 227.893 196.577 227.893 199.108ZM268.102 201.604V215.8C268.38 218.435 268.848 220.168 269.506 221H259.626C260.562 219.717 261.03 217.793 261.03 215.228V201.136C260.996 200.165 260.805 199.264 260.458 198.432C259.8 196.941 258.933 196.196 257.858 196.196C257.581 196.196 257.356 196.213 257.182 196.248C255.518 196.56 254.236 198.241 253.334 201.292V215.332C253.334 217.967 253.802 219.856 254.738 221H244.806C245.742 219.856 246.21 217.967 246.21 215.332V199.264C246.21 196.629 245.742 194.74 244.806 193.596H254.738C254.08 194.393 253.629 195.988 253.386 198.38C254.877 195.399 257.321 193.804 260.718 193.596C263.145 193.596 264.982 194.307 266.23 195.728C267.478 197.149 268.102 199.108 268.102 201.604Z" fill="#2F5B48"/>
<path d="M35.328 60.6L36.94 65.176C36.3853 64.6213 35.8307 64.1707 35.276 63.824C33.612 62.9573 31.792 62.524 29.816 62.524H24.668V91.28C24.668 93.9493 25.136 95.856 26.072 97H16.14C17.076 95.856 17.544 93.9493 17.544 91.28V62.524H12.864C10.888 62.524 9.068 62.9573 7.404 63.824C6.84933 64.1707 6.29467 64.6213 5.74 65.176L7.352 60.6H35.328ZM51.9631 86.236H58.9311C58.3071 89.356 56.8165 91.9387 54.4591 93.984C52.1018 95.9947 49.3805 97 46.2951 97C42.7245 97 39.6738 95.6653 37.1431 92.996C34.6125 90.3267 33.3471 87.0853 33.3471 83.272C33.3471 79.4933 34.6125 76.2693 37.1431 73.6C39.6738 70.9307 42.7245 69.596 46.2951 69.596C49.3111 69.596 52.0151 70.6013 54.4071 72.612C56.7991 74.6227 58.3071 77.1533 58.9311 80.204H58.2551C54.7885 80.204 51.4431 80.7067 48.2191 81.712C46.1045 82.3707 44.4405 83.3413 43.2271 84.624C42.0138 85.9067 41.4071 87.3627 41.4071 88.992C41.4071 89.408 41.4245 89.72 41.4591 89.928C41.9791 91.5227 42.6551 92.788 43.4871 93.724C44.3538 94.6253 45.2898 95.076 46.2951 95.076C47.6471 95.076 48.8431 94.244 49.8831 92.58C50.9231 90.916 51.6165 88.8013 51.9631 86.236ZM40.4711 83.22V84.624C42.3085 82.0587 46.1045 80.36 51.8591 79.528C51.4431 77.0667 50.7325 75.0907 49.7271 73.6C48.7565 72.1093 47.6125 71.364 46.2951 71.364C44.7005 71.364 43.3311 72.5253 42.1871 74.848C41.0431 77.1707 40.4711 79.9613 40.4711 83.22ZM99.8113 77.604V91.54C99.8113 94.036 100.279 95.856 101.215 97H91.2833C92.2193 95.856 92.6873 93.9667 92.6873 91.332V77.136C92.6526 76.1653 92.4619 75.264 92.1153 74.432C91.4566 72.9413 90.5899 72.196 89.5153 72.196C89.2379 72.196 89.0126 72.2133 88.8393 72.248C87.0019 72.56 85.6326 74.536 84.7313 78.176V91.8C85.0086 94.4 85.4766 96.1333 86.1353 97H76.2033C76.8619 96.168 77.2953 94.8507 77.5033 93.048C77.6073 92.2853 77.6593 91.4533 77.6593 90.552V77.136C77.6246 76.1653 77.4339 75.264 77.0873 74.432C76.4286 72.9413 75.5619 72.196 74.4873 72.196C74.2099 72.196 73.9846 72.2133 73.8113 72.248C72.1473 72.56 70.8646 74.2413 69.9633 77.292V91.332C69.9633 93.9667 70.4313 95.856 71.3673 97H61.4353C62.3713 95.856 62.8393 93.9667 62.8393 91.332V75.264C62.8393 72.6293 62.3713 70.74 61.4353 69.596H71.3673C70.7086 70.3933 70.2579 71.988 70.0153 74.38C71.5059 71.3987 73.9499 69.804 77.3473 69.596C81.4726 69.596 83.8819 71.572 84.5753 75.524C85.8926 71.7453 88.5099 69.7693 92.4273 69.596C94.8193 69.596 96.6393 70.324 97.8873 71.78C99.1699 73.2013 99.8113 75.1427 99.8113 77.604ZM121.005 70.012C123.848 70.7747 126.188 72.3867 128.025 74.848C129.862 77.3093 130.781 80.1347 130.781 83.324C130.781 87.1373 129.516 90.3787 126.985 93.048C124.454 95.7173 121.404 97.052 117.833 97.052C115.753 97.052 113.794 96.5493 111.957 95.544V99.392C111.957 100.259 112.009 101.108 112.113 101.94C112.39 103.777 112.824 105.077 113.413 105.84H103.429C104.4 104.557 104.885 102.495 104.885 99.652V75.784C104.885 72.9413 104.4 70.8787 103.429 69.596H113.413C112.824 70.324 112.39 71.6413 112.113 73.548C112.009 74.3453 111.957 75.1773 111.957 76.044V83.376C111.957 86.6 112.529 89.3907 113.673 91.748C114.852 94.0707 116.238 95.232 117.833 95.232C118.145 95.232 118.457 95.18 118.769 95.076C119.081 94.8333 119.358 94.504 119.601 94.088C119.878 93.6027 120.017 93.0827 120.017 92.528C120.017 91.904 119.861 91.228 119.549 90.5C119.306 89.8413 119.168 89.46 119.133 89.356C117.4 85.404 116.273 82.6653 115.753 81.14C114.921 78.8867 114.401 76.9453 114.193 75.316C114.124 74.484 114.089 74.0333 114.089 73.964C114.089 73.34 114.158 72.82 114.297 72.404C114.817 70.4973 116.169 69.544 118.353 69.544C119.393 69.544 120.277 69.7 121.005 70.012ZM120.069 94.296C121.144 93.36 122.01 91.9213 122.669 89.98C123.328 88.0387 123.657 85.8373 123.657 83.376C123.657 79.0427 122.773 75.732 121.005 73.444C120 72.1613 118.942 71.52 117.833 71.52C117.556 71.52 117.382 71.5373 117.313 71.572C116.238 71.78 115.701 72.768 115.701 74.536C115.701 74.5707 115.753 75.212 115.857 76.46C116.204 79.4067 117.608 84.0347 120.069 90.344C120.381 91.1413 120.537 91.852 120.537 92.476C120.537 93.1693 120.381 93.776 120.069 94.296ZM141.818 66.424V91.332C141.818 93.9667 142.286 95.856 143.222 97H133.29C134.226 95.856 134.694 93.9667 134.694 91.332V66.424C134.694 63.7893 134.226 61.9 133.29 60.756H143.222C142.286 61.9 141.818 63.7893 141.818 66.424ZM164.393 86.236H171.361C170.737 89.356 169.246 91.9387 166.889 93.984C164.531 95.9947 161.81 97 158.725 97C155.154 97 152.103 95.6653 149.573 92.996C147.042 90.3267 145.777 87.0853 145.777 83.272C145.777 79.4933 147.042 76.2693 149.573 73.6C152.103 70.9307 155.154 69.596 158.725 69.596C161.741 69.596 164.445 70.6013 166.837 72.612C169.229 74.6227 170.737 77.1533 171.361 80.204H170.685C167.218 80.204 163.873 80.7067 160.649 81.712C158.534 82.3707 156.87 83.3413 155.657 84.624C154.443 85.9067 153.837 87.3627 153.837 88.992C153.837 89.408 153.854 89.72 153.889 89.928C154.409 91.5227 155.085 92.788 155.917 93.724C156.783 94.6253 157.719 95.076 158.725 95.076C160.077 95.076 161.273 94.244 162.313 92.58C163.353 90.916 164.046 88.8013 164.393 86.236ZM152.901 83.22V84.624C154.738 82.0587 158.534 80.36 164.289 79.528C163.873 77.0667 163.162 75.0907 162.157 73.6C161.186 72.1093 160.042 71.364 158.725 71.364C157.13 71.364 155.761 72.5253 154.617 74.848C153.473 77.1707 152.901 79.9613 152.901 83.22ZM195.34 87.016C195.79 87.7093 196.016 88.5067 196.016 89.408C196.016 90.5173 195.773 91.5747 195.288 92.58C194.456 94.2093 193 95.3533 190.92 96.012C188.874 96.6707 186.69 97 184.368 97C181.698 97 179.22 96.5493 176.932 95.648H176.828L176.776 95.596L173.656 94.452L176.412 86.86L176.672 87.9C177.192 89.4253 177.538 90.4307 177.712 90.916C178.37 92.476 179.133 93.672 180 94.504C180.866 95.336 182.045 95.752 183.536 95.752C184.853 95.752 186.153 95.284 187.436 94.348C187.921 93.8627 188.25 93.2907 188.424 92.632C188.493 92.3547 188.528 92.1293 188.528 91.956C188.528 90.7427 187.869 89.616 186.552 88.576C185.789 88.0213 185.13 87.6053 184.576 87.328C184.437 87.224 183.536 86.7387 181.872 85.872C181.213 85.5253 180.814 85.3347 180.676 85.3C179.636 84.7453 178.908 84.364 178.492 84.156C178.11 83.948 177.573 83.5667 176.88 83.012C176.186 82.4227 175.666 81.816 175.32 81.192C174.73 80.152 174.436 78.9907 174.436 77.708C174.436 76.8067 174.592 75.94 174.904 75.108V75.004C175.736 73.2013 177.14 71.884 179.116 71.052C181.092 70.1853 183.224 69.7 185.512 69.596H185.876H186.292C188.372 69.596 190.902 70.1333 193.884 71.208C193.953 71.2427 194.144 71.3293 194.456 71.468C194.802 71.572 195.097 71.6587 195.34 71.728L192.584 79.424C192.549 79.3893 192.532 79.2853 192.532 79.112C192.393 78.7307 192.306 78.488 192.272 78.384C191.96 77.2053 191.492 75.9227 190.868 74.536C190.244 73.1147 189.62 72.196 188.996 71.78C188.198 71.2947 187.384 71.052 186.552 71.052C186.309 71.052 185.98 71.0867 185.564 71.156C184.524 71.364 183.605 71.832 182.808 72.56C182.01 73.2533 181.542 74.0507 181.404 74.952C181.404 75.0213 181.386 75.108 181.352 75.212C181.352 75.316 181.352 75.4027 181.352 75.472C181.352 77.0667 182.132 78.3493 183.692 79.32C184.177 79.632 186.101 80.6547 189.464 82.388C189.845 82.6307 190.174 82.804 190.452 82.908C192.878 84.26 194.508 85.6293 195.34 87.016Z" fill="#2F5B48"/>
</svg>
