<svg width="21" height="16" viewBox="0 0 21 16" fill="none" xmlns="http://www.w3.org/2000/svg">
<path d="M0 0H13.8327V10.9999H0V0Z" fill="#CC6957"/>
<path d="M19.676 2.99979H14.7912V7.04739L20.9545 7.90463L19.676 2.99979Z" fill="#CC6957"/>
<path d="M4.01744 14.238C3.8348 14.0475 3.60661 13.9524 3.33274 13.9524C3.05885 13.9524 2.83048 14.0475 2.64803 14.238C2.60233 14.2857 2.60233 14.2857 2.60233 14.3332C2.46538 14.5237 2.37415 14.7142 2.37415 14.9999C2.37415 15.5713 2.8307 16 3.33291 16C3.88069 16 4.29168 15.5238 4.29168 14.9999C4.29168 14.7619 4.20044 14.5237 4.06349 14.3332C4.063 14.2855 4.063 14.238 4.01746 14.238H4.01744Z" fill="#CC6957"/>
<path d="M14.7912 8.04764V11.4762C14.7912 11.7619 14.563 11.9524 14.3346 11.9524L0 11.9523V13.3809H2.05433C2.37392 13.0475 2.83047 12.9046 3.33251 12.9046C3.83477 12.9046 4.24558 13.0952 4.6107 13.3809H16.3891C16.7087 13.0475 17.1653 12.9046 17.6673 12.9046C18.1696 12.9046 18.5804 13.0952 18.9455 13.3809H21V8.857L14.7912 8.04764Z" fill="#CC6957"/>
<path d="M18.3521 14.238C18.1694 14.0475 17.9412 13.9524 17.6674 13.9524C17.3935 13.9524 17.1651 14.0475 16.9827 14.238C16.937 14.2857 16.937 14.2857 16.937 14.3332C16.8 14.5237 16.7088 14.7142 16.7088 14.9999C16.7088 15.5713 17.1653 16 17.6675 16C18.2153 16 18.6263 15.5238 18.6263 14.9999C18.6263 14.7619 18.5351 14.5237 18.3981 14.3332C18.3978 14.2855 18.3521 14.238 18.3521 14.238H18.3521Z" fill="#CC6957"/>
</svg>
