<svg width="14" height="14" viewBox="0 0 14 14" fill="none" xmlns="http://www.w3.org/2000/svg">
<path d="M6.45001 4.51526V9.53221H13.95V4.51526H6.45001ZM9.50001 8.02712C8.95001 8.02712 8.50001 7.5756 8.50001 7.02373C8.50001 6.47187 8.95001 6.02034 9.50001 6.02034C10.05 6.02034 10.5 6.47187 10.5 7.02373C10.5 7.5756 10.05 8.02712 9.50001 8.02712Z" fill="#CC6957"/>
<path d="M14 3.26102H5.9C5.5 3.26102 5.2 3.56203 5.2 3.96339V10.0339C5.2 10.4353 5.5 10.7363 5.9 10.7363H14V12.5424C14 13.3451 13.35 13.9973 12.55 13.9973H1.45C0.65 14.0475 0 13.3953 0 12.5925V1.45492C0 0.652203 0.65 0 1.45 0H12.55C13.35 0 14 0.652203 14 1.45492V3.26102Z" fill="#CC6957"/>
<path d="M6.45001 4.51526V9.53221H13.95V4.51526H6.45001ZM9.50001 8.02712C8.95001 8.02712 8.50001 7.5756 8.50001 7.02373C8.50001 6.47187 8.95001 6.02034 9.50001 6.02034C10.05 6.02034 10.5 6.47187 10.5 7.02373C10.5 7.5756 10.05 8.02712 9.50001 8.02712Z" fill="#CC6957"/>
<path d="M6.45001 4.51526V9.53221H13.95V4.51526H6.45001ZM9.50001 8.02712C8.95001 8.02712 8.50001 7.5756 8.50001 7.02373C8.50001 6.47187 8.95001 6.02034 9.50001 6.02034C10.05 6.02034 10.5 6.47187 10.5 7.02373C10.5 7.5756 10.05 8.02712 9.50001 8.02712Z" fill="#CC6957"/>
</svg>
